<svg width="50" height="50" fill="none" xmlns="http://www.w3.org/2000/svg"><g clip-path="url(#clip0_0_195)" fill="#000"><path d="M35.041 35.775a.693.693 0 01.1 0h3.318a.5.5 0 01.125.255c.592 1.774 1.188 3.547 1.786 5.32L42.271 47c0 .085.06.165.105.28.045-.11.08-.185.105-.26l2.095-6.185L46.208 36c.03-.085.065-.17.1-.26h3.432a.23.23 0 01.03.08v13.83c.004.03.004.06 0 .09h-2.295V38.87a.712.712 0 00-.035-.325c-.164.4-.274.78-.404 1.145s-.254.75-.384 1.125-.25.735-.38 1.1c-.129.365-.254.745-.383 1.12l-.385 1.125c-.13.375-.254.75-.384 1.12-.13.37-.254.75-.384 1.125s-.25.73-.38 1.1c-.129.37-.254.745-.383 1.12-.13.375-.255.75-.38 1.115-.194.04-1.866.055-2.38 0-.08-.055-.09-.155-.114-.235L39.83 45.9l-2.385-7c0-.075-.054-.15-.09-.23-.064 0-.04.075-.04.105V49.77a.38.38 0 01-.104.03h-2.166a1.005 1.005 0 01-.035-.13V36.095a.702.702 0 01.03-.32zM14.09 42.66a8.05 8.05 0 01-.783 3.6 6.543 6.543 0 01-4.316 3.5c-.878.23-1.79.301-2.694.21a7.153 7.153 0 01-2.495-.68 6.598 6.598 0 01-3.378-3.885A8.05 8.05 0 010 42.5a7.639 7.639 0 01.499-2.565 6.55 6.55 0 011.952-2.827 6.53 6.53 0 013.112-1.448 7.36 7.36 0 013.992.275 6.54 6.54 0 014.086 4.15c.231.654.369 1.338.41 2.03.02.205.034.43.04.545zm-2.405-.05a5.722 5.722 0 00-.11-1.05 5.137 5.137 0 00-.633-1.76 4.192 4.192 0 00-2.61-2 4.93 4.93 0 00-2.494 0 4.206 4.206 0 00-2.395 1.6 4.883 4.883 0 00-.848 1.755 6.558 6.558 0 00-.165 2.205 5.64 5.64 0 00.459 1.835A4.29 4.29 0 005.434 47.6a4.717 4.717 0 002.14.24 4.347 4.347 0 003.662-2.735c.317-.792.47-1.641.45-2.495zM50 7.15a8.068 8.068 0 01-.674 3.38 6.538 6.538 0 01-4.63 3.78 7.374 7.374 0 01-4.186-.195 6.524 6.524 0 01-4.181-4.21 7.944 7.944 0 01-.404-2.82 8.04 8.04 0 01.439-2.525 6.626 6.626 0 011.94-2.897A6.605 6.605 0 0141.442.155a7.47 7.47 0 013.992.26 6.524 6.524 0 014.116 4.15c.232.644.372 1.317.414 2 .015.235.03.465.035.585zm-2.395.12c0-.27-.035-.545-.065-.815a5.298 5.298 0 00-.549-1.885 4.26 4.26 0 00-2.584-2.22 4.93 4.93 0 00-2.176-.165 4.229 4.229 0 00-2.779 1.545 4.864 4.864 0 00-.998 2.15 6.514 6.514 0 00-.11 2.065c.07.685.265 1.35.574 1.965a4.25 4.25 0 002.335 2.16 4.765 4.765 0 002.18.285 4.482 4.482 0 001.872-.575A4.378 4.378 0 0047.18 9.5a6.316 6.316 0 00.424-2.23zM8.263 8l.24.11a2.803 2.803 0 011.476 1.455c.15.33.263.675.334 1.03.246 1.14.49 2.277.729 3.41 0 .09.035.175.05.28a.679.679 0 01-.125.025H8.702c0-.05-.045-.11-.06-.17-.2-.95-.4-1.9-.604-2.85-.05-.245-.12-.5-.184-.72a.88.88 0 00-.06-.16 2.33 2.33 0 00-1.946-1.58 6.36 6.36 0 00-.814-.06h-2.07a.374.374 0 00-.25.04c-.03.255 0 .5 0 .78v4.705a.954.954 0 01-.13.025H.445a.649.649 0 01-.11 0v-.145a1.403 1.403 0 010-.145V.285c.07-.004.14-.004.21 0h5.643a6.095 6.095 0 011.94.295c.368.12.718.289 1.043.5a3.57 3.57 0 011.497 2.03 4.343 4.343 0 010 2.395 3.572 3.572 0 01-1.837 2.25c-.084.05-.174.09-.264.135L8.263 8zM2.714 6.66h3.628c.263-.01.523-.065.768-.16a1.956 1.956 0 001.242-1.375 2.16 2.16 0 00.06-.76A2.003 2.003 0 007.125 2.59a2.49 2.49 0 00-.913-.185H2.994a.438.438 0 00-.255.03c-.035.245-.05 2.5 0 4.035-.04.03-.03.1-.025.19z"/></g><defs><clipPath id="clip0_0_195"><path fill="#fff" d="M0 0h50v50H0z"/></clipPath></defs></svg>