<svg width="162" height="121" fill="none" xmlns="http://www.w3.org/2000/svg"><g clip-path="url(#clip0_0_265)" fill="#AAA"><path d="M143.093 0H18.058C13.236.033 8.632 1.164 5.252 3.145 1.872 5.127-.01 7.8.017 10.577v9.356h8.177v-9.327c0-1.516 1.034-2.97 2.88-4.05 1.845-1.079 4.354-1.697 6.984-1.72h125.035c2.632.02 5.145.637 6.994 1.717 1.85 1.08 2.886 2.536 2.886 4.053V89.97H8.178V74.807H0v19.971h161.117V10.615c.045-2.783-1.827-5.463-5.206-7.453-3.378-1.99-7.987-3.126-12.818-3.162z"/><path d="M8.194 27.712H.017v39.355h8.177V27.712zm25.835 88.481h-5.942V98.347H19.91V121h19.793l14.403-22.654-8.729.02-11.348 17.826zm99.017 0h-5.941l-11.349-17.846h-8.728L121.431 121h19.793V98.347h-8.161l-.017 17.846zM56.627 47.394c.098 2.716 1.586 5.355 4.277 7.585 2.69 2.231 6.464 3.955 10.848 4.955s9.183 1.233 13.795.668c4.612-.564 8.832-1.9 12.132-3.841 3.299-1.941 5.531-4.4 6.415-7.068.885-2.668.382-5.428-1.444-7.932-1.827-2.505-4.896-4.643-8.823-6.147-3.927-1.503-8.537-2.306-13.251-2.306-6.414.045-12.536 1.553-17.024 4.193-4.489 2.64-6.979 6.197-6.925 9.893zm21.495-11.106v9.183h4.907v-9.183c4.797.36 9.178 1.757 12.251 3.909 3.073 2.152 4.61 4.898 4.298 7.679-.312 2.781-2.45 5.39-5.98 7.296-3.529 1.906-8.185 2.967-13.022 2.967-4.838 0-9.494-1.06-13.024-2.967-3.529-1.906-5.667-4.515-5.98-7.296-.311-2.781 1.225-5.527 4.3-7.679 3.073-2.152 7.453-3.55 12.25-3.909zm4.907-12.586h-4.907v5.5h4.907v-5.5zm-13.919.934l-4.607.98 3.188 5.174 4.606-.99-3.187-5.164zm-16.306 5.528l6.025 4.22 3.755-1.855-6.008-4.211-3.772 1.846zm-8.327 6.625l8.094 2.75 2.453-2.49-8.094-2.75-2.453 2.49zm-3.989 7.904l9.212.961.852-2.846-9.213-.952-.85 2.837zm0 5.394l.851 2.836 9.213-.952-.852-2.846-9.212.962zm14.536 7.643l-2.453-2.49-8.094 2.75 2.436 2.491 8.111-2.75zm7.543 4.52l-3.755-1.846-6.008 4.211 3.755 1.856 6.008-4.221zm6.543 7.895l3.187-5.163-4.606-.991-3.204 5.173 4.623.981zm13.919-4.559h-4.907v5.5h4.907v-5.5zm9.011 4.559l4.607-.98-3.188-5.174-4.606.99 3.188 5.164zm6.526-7.885l6.025 4.211 3.755-1.856-6.025-4.211-3.755 1.856zm18.108-4.27l-8.094-2.75-2.453 2.5 8.094 2.75 2.453-2.5zm3.989-7.903l-9.213-.952-.851 2.837 9.212.952.852-2.837zm-.852-8.231l-9.212.961.851 2.837 9.213-.952-.852-2.846zm-13.684-4.807l2.453 2.5 8.111-2.75-2.453-2.5-8.111 2.75zm-7.544-4.519l3.755 1.855 6.008-4.212-3.755-1.855-6.008 4.211zm-6.525-7.894l-3.205 5.173 4.606.98 3.204-5.163-4.605-.99z"/></g><defs><clipPath id="clip0_0_265"><path fill="#fff" d="M0 0h162v121H0z"/></clipPath></defs></svg>