<svg width="162" height="121" fill="none" xmlns="http://www.w3.org/2000/svg"><g clip-path="url(#clip0_0_289)" fill="#AAA"><path d="M133.191 25.654l12.143-10.064-5.484-3.083-12.186 10.064C114.905 15.976 99.413 12.174 83.3 11.683V4.848h13.45V0H62.802v4.848H76.25v6.835C33.874 12.973 0 36.863 0 66.085c-.01 9.67 3.772 19.174 10.967 27.564l6.123-2.453c-6.553-7.644-9.994-16.302-9.981-25.111 0-27.361 32.626-49.612 72.71-49.612 40.083 0 72.71 22.3 72.71 49.621 0 27.322-32.656 49.651-72.739 49.651-14.97-.015-29.558-3.157-41.723-8.988h15.392v-4.847H25.62V121h7.11v-10.937c13.582 6.804 30.087 10.497 47.061 10.53 44 0 79.789-24.433 79.789-54.46.039-7.6-2.287-15.124-6.83-22.092-4.542-6.969-11.203-13.23-19.558-18.387z"/><path d="M83.3 66.085h.044V25.916h-7.108v37.745H31.394v4.848H83.3v-2.424z"/></g><defs><clipPath id="clip0_0_289"><path fill="#fff" d="M0 0h162v121H0z"/></clipPath></defs></svg>