<svg width="162" height="121" fill="none" xmlns="http://www.w3.org/2000/svg"><g clip-path="url(#clip0_0_292)"><path d="M161.998 40.86L162 20.894l-31.55-.102-.017 4.382 18.976.06-33.807 15.79.002-22.006v-.004c-.002-.774-.462-1.49-1.215-1.883L82.159.303a2.749 2.749 0 00-2.518.004L47.615 17.134c-.75.395-1.21 1.11-1.21 1.883l-.003 22.007L13.31 25.226l18.266-.055-.018-4.382-27.367.085-.535-.255-.158.259-3.49.011-.002 19.967h4.948l.002-14.637L46.4 45.999l-.002 27.345-2.17 1.014 2.17 3.64v.001l-2.17-3.641-39.28 18.344.002-14.243H.002L0 98.426l31.55.102.017-4.382-18.973-.061 33.802-15.787-.003 22.004c0 .776.463 1.492 1.218 1.887l32.23 16.828a2.7 2.7 0 001.256.305c.437 0 .875-.103 1.262-.306l32.023-16.825c.751-.395 1.212-1.109 1.212-1.883l.002-21.27 33.99 16.227-19.164.06.018 4.38 31.549-.097.003-19.967h-4.948l-.003 14.206-39.258-18.74-2.189-1.046.002-28.08 41.452-19.36-.002 14.242h4.952v-.004zM80.905 4.734l27.365 14.29-27.168 14.273-27.368-14.289 27.17-14.274zm-29.56 71.251L65.45 69.4l-5.16-2.542-8.942 4.177.005-48.185 27.283 14.244-.006 76.202L51.346 99.05V75.986zm59.307.686l-.002 22.385-27.078 14.227.007-76.193 27.078-14.225-.005 48.83-10.304-4.92-4.783 2.695 15.087 7.2z" fill="#AAA"/></g><defs><clipPath id="clip0_0_292"><path fill="#fff" d="M0 0h162v121H0z"/></clipPath></defs></svg>